<svg width="55" height="40" viewBox="0 0 55 40" fill="none" xmlns="http://www.w3.org/2000/svg">
<path d="M18.0212 20.044C18.0212 20.0545 18.0212 20.0545 18.0212 20.044C18 20.0862 18 20.1284 18 20.16V20.1706C18 20.2022 18.0106 20.2339 18.0212 20.2656C18.0212 20.2761 18.0212 20.2761 18.0212 20.2761C18.0425 20.3078 18.0531 20.3394 18.0849 20.3605L18.0956 20.3711C18.1062 20.3816 18.1168 20.3922 18.138 20.4027L24.9015 24.9402C25.029 25.0457 25.2095 25.0035 25.305 24.8769C25.4006 24.7397 25.3581 24.5498 25.2201 24.4653L19.2741 20.4766L39.7027 20.4766C39.862 20.4661 40 20.3394 40 20.1706C40 20.0018 39.862 19.8751 39.7027 19.8751L19.1892 19.8751L24.9865 15.5382C25.1245 15.4432 25.1458 15.2533 25.0502 15.1161C24.9865 15.0422 24.9015 15 24.806 15C24.7423 15 24.6786 15.0211 24.6255 15.0633L18.1062 19.9384C18.0956 19.949 18.0956 19.949 18.0849 19.9595C18.0743 19.9595 18.0743 19.9701 18.0743 19.9701C18.0531 19.9912 18.0319 20.0229 18.0212 20.044Z" fill="#232020"/>
</svg>
