<svg width="36" height="36" viewBox="0 0 36 36" fill="none" xmlns="http://www.w3.org/2000/svg">
<circle cx="18" cy="18" r="17" stroke="#E8DC59" stroke-width="2"/>
<g clip-path="url(#clip0_405_213)">
<path d="M15.233 26.1395C15.233 27.7163 16.4758 29 18.0025 29C19.5291 29 20.7719 27.7163 20.7719 26.1395C20.7719 24.5627 19.5291 23.2791 18.0025 23.2791C16.471 23.2791 15.233 24.5627 15.233 26.1395ZM17.9976 28.1661C16.9162 28.1661 16.0355 27.2564 16.0355 26.1395C16.0355 25.0226 16.9162 24.1129 17.9976 24.1129C19.0789 24.1129 19.9596 25.0226 19.9596 26.1395C19.9596 27.2564 19.0838 28.1661 17.9976 28.1661Z" fill="#E9DC5A"/>
<path d="M7.2232 13.1815C7.54614 13.1764 7.8495 13.045 8.07458 12.8075C10.7119 10.0279 14.2397 8.49659 18.0024 8.49659C21.7651 8.49659 25.2929 10.0279 27.9302 12.8075C28.1602 13.0501 28.4685 13.1815 28.7914 13.1815C29.1094 13.1815 29.4079 13.0552 29.6379 12.8277C29.8679 12.5953 29.9951 12.2819 30 11.9484C30.0049 11.6148 29.8825 11.3015 29.6526 11.0639C26.5553 7.79917 22.4208 6 17.9975 6C13.5792 6 9.43971 7.79917 6.34736 11.0639C6.11739 11.3015 5.99507 11.6148 5.99996 11.9484C6.00485 12.2819 6.13207 12.5953 6.36204 12.8277C6.58711 13.0602 6.89048 13.1866 7.20852 13.1866C7.21341 13.1815 7.21831 13.1815 7.2232 13.1815ZM6.91984 11.6451C9.8654 8.54208 13.7993 6.83388 17.9975 6.83388C22.1957 6.83388 26.1345 8.54208 29.0752 11.6451C29.1486 11.726 29.1926 11.8271 29.1926 11.9433C29.1926 12.0545 29.1486 12.1606 29.0703 12.2364C28.9186 12.3931 28.6495 12.388 28.5027 12.2314C25.7137 9.29005 21.9804 7.66777 18.0024 7.66777C14.0195 7.66777 10.2911 9.29005 7.49721 12.2314C7.42381 12.3122 7.32106 12.3577 7.21341 12.3577C7.10577 12.3577 7.00302 12.3173 6.92962 12.2364C6.85133 12.1606 6.8073 12.0545 6.8073 11.9433C6.8024 11.8271 6.84644 11.7209 6.91984 11.6451Z" fill="#E9DC5A"/>
<path d="M26.5798 15.5113C24.3046 13.0956 21.2612 11.7614 18.0025 11.7614C14.7437 11.7614 11.6954 13.0905 9.42508 15.5113C8.96025 16.0066 8.97004 16.795 9.44955 17.2751C9.92906 17.7552 10.6924 17.7451 11.1572 17.2498C12.9725 15.3193 15.4043 14.2579 18.0025 14.2579C20.6006 14.2579 23.0324 15.3193 24.8477 17.2498C25.0777 17.4924 25.3859 17.6289 25.7138 17.6289C26.0318 17.6289 26.3303 17.5025 26.5554 17.2751C27.03 16.795 27.0447 16.0015 26.5798 15.5113ZM25.9927 16.6787C25.8361 16.8354 25.5719 16.8303 25.4251 16.6686C23.4581 14.5763 20.8208 13.4241 18.0025 13.4241C15.1841 13.4241 12.5468 14.5763 10.5798 16.6686C10.4232 16.8354 10.1688 16.8354 10.0122 16.6787C9.85077 16.517 9.85077 16.2542 10.0025 16.0925C12.1211 13.8385 14.9639 12.5952 18.0025 12.5952C21.041 12.5952 23.8838 13.8385 26.0025 16.0925C26.1541 16.2542 26.1541 16.517 25.9927 16.6787Z" fill="#E9DC5A"/>
<path d="M22.8906 22.5362C23.2037 22.5362 23.4973 22.4149 23.7272 22.1925C23.9621 21.96 24.0942 21.6518 24.0991 21.3182C24.1089 20.9846 23.9866 20.6663 23.7664 20.4287C22.2447 18.7862 20.1994 17.8816 18.0025 17.8816C15.8055 17.8816 13.7603 18.7862 12.2386 20.4287C12.0135 20.6713 11.8961 20.9846 11.9058 21.3182C11.9156 21.6518 12.0477 21.96 12.2777 22.1925C12.5028 22.4149 12.8013 22.5362 13.1095 22.5362C13.1193 22.5362 13.1291 22.5362 13.1389 22.5362C13.4618 22.5261 13.7603 22.3896 13.9854 22.1521C15.0471 21.0049 16.471 20.3782 18.0025 20.3782C19.534 20.3782 20.9578 21.0099 22.0196 22.1521C22.2398 22.3997 22.5627 22.5362 22.8906 22.5362ZM12.8306 21.5911C12.7523 21.5153 12.7083 21.4092 12.7083 21.298C12.7083 21.1868 12.7474 21.0807 12.8208 20.9998C14.186 19.5241 16.0257 18.7104 18.0025 18.7104C19.9792 18.7104 21.819 19.5241 23.1841 20.9998C23.2575 21.0807 23.2967 21.1868 23.2967 21.298C23.2967 21.4092 23.2477 21.5102 23.1743 21.5911C23.0178 21.7427 22.7535 21.7377 22.6068 21.5759C21.3933 20.267 19.7591 19.5443 18.0074 19.5443C16.2557 19.5443 14.6214 20.267 13.408 21.5759C13.3346 21.6568 13.2318 21.7023 13.1242 21.7023C13.0116 21.7073 12.9089 21.6669 12.8306 21.5911Z" fill="#E9DC5A"/>
</g>
<defs>
<clipPath id="clip0_405_213">
<rect width="24" height="23" fill="white" transform="translate(6 6)"/>
</clipPath>
</defs>
</svg>
