<svg width="36" height="36" viewBox="0 0 36 36" fill="none" xmlns="http://www.w3.org/2000/svg">
<g clip-path="url(#clip0_405_211)">
<path d="M28.986 21.4719C28.9136 21.1408 28.592 20.9324 28.267 21.0054L24.8102 21.7867L24.0787 21.3563L23.2185 20.853L24.3272 20.602C24.6522 20.5283 24.8568 20.2008 24.7851 19.8697C24.7128 19.5386 24.3912 19.3302 24.0662 19.4032L21.6686 19.9448L21.1404 19.6357V17.3615L21.78 16.9871L24.0307 17.4962C24.0746 17.5061 24.1184 17.511 24.1616 17.511C24.4379 17.511 24.687 17.3161 24.7489 17.0304C24.8213 16.6993 24.616 16.3718 24.291 16.298L23.3292 16.0804L24.0794 15.6416L24.9202 15.1467L28.2301 15.8947C28.274 15.9046 28.3178 15.9095 28.361 15.9095C28.6373 15.9095 28.8864 15.7146 28.9484 15.4289C29.0208 15.0978 28.8154 14.7703 28.4904 14.6966L26.4638 14.2386L28.4222 13.0866C28.7104 12.9171 28.8092 12.5414 28.6428 12.2479C28.4765 11.9544 28.1077 11.8537 27.8195 12.0231L25.749 13.2411L26.4255 11.054C26.5257 10.7307 26.349 10.3862 26.0316 10.2841C25.7142 10.182 25.376 10.3614 25.2758 10.6854L24.204 14.15L23.476 14.5782L22.6165 15.0808L22.9638 13.9593C23.064 13.636 22.8879 13.2914 22.5699 13.1893C22.2525 13.0873 21.9143 13.2673 21.8141 13.5906L21.0736 15.984L20.5467 16.2924L18.6161 15.1574V14.481L20.2468 12.6697C20.4716 12.4202 20.4549 12.0317 20.2099 11.8027C19.9649 11.5737 19.5835 11.5907 19.3587 11.8402L18.6168 12.6647V10.7974L20.9887 8.16439C21.2135 7.91484 21.1968 7.52635 20.9518 7.29736C20.7068 7.06837 20.3254 7.08539 20.1006 7.33493L18.6196 8.98038V6.61394C18.6196 6.27507 18.3496 6 18.0169 6C17.6843 6 17.4142 6.27507 17.4142 6.61394V8.93855L15.9715 7.33493C15.7467 7.08539 15.3653 7.06837 15.1203 7.29736C14.8754 7.52635 14.8587 7.91484 15.0834 8.16439L17.4149 10.7549V12.6229L16.7106 11.8409C16.4858 11.5914 16.1044 11.5744 15.8594 11.8034C15.6145 12.0324 15.5978 12.4209 15.8226 12.6704L17.4149 14.4399V15.1141L15.4161 16.2895L14.9276 15.9975L14.1836 13.592C14.0834 13.2688 13.7451 13.0894 13.4278 13.1908C13.1104 13.2929 12.9343 13.6374 13.0338 13.9607L13.377 15.0709L12.5599 14.5824C12.5585 14.5817 12.5578 14.581 12.5564 14.5803L11.786 14.1273L10.7219 10.6868C10.6216 10.3635 10.2834 10.1842 9.96605 10.2855C9.64869 10.3876 9.47262 10.7322 9.57214 11.0554L10.241 13.2184L8.21293 12.0253C7.9248 11.8558 7.55594 11.9565 7.38961 12.25C7.22327 12.5435 7.3221 12.9192 7.61023 13.0887L9.55891 14.235L7.50792 14.698C7.18291 14.7717 6.97829 15.0992 7.04998 15.4303C7.11261 15.7167 7.36107 15.911 7.63737 15.911C7.68052 15.911 7.72436 15.906 7.76821 15.8961L11.1026 15.1425L11.9516 15.6416L12.6831 16.0783L11.708 16.2988C11.383 16.3725 11.1784 16.7 11.2501 17.0311C11.3127 17.3175 11.5612 17.5118 11.8375 17.5118C11.8806 17.5118 11.9245 17.5068 11.9683 17.4969L14.2086 16.9907L14.8169 17.3544V19.6457L14.3186 19.9434L11.9328 19.4039C11.6078 19.3302 11.2863 19.5393 11.2139 19.8704C11.1415 20.2015 11.3468 20.529 11.6719 20.6027L12.7923 20.8558L11.9516 21.3585L11.2139 21.7923L7.73271 21.0054C7.4077 20.9317 7.08617 21.1408 7.01379 21.4719C6.94141 21.803 7.14672 22.1305 7.47173 22.2042L9.66957 22.7012L7.61023 23.9121C7.3221 24.0815 7.22327 24.4572 7.38961 24.7507C7.50096 24.9478 7.70348 25.0577 7.91227 25.0577C8.01458 25.0577 8.11828 25.0315 8.21293 24.9755L10.1602 23.8298L9.53664 25.8467C9.43643 26.17 9.6125 26.5146 9.93056 26.6167C9.99111 26.6358 10.0517 26.645 10.1115 26.645C10.3676 26.645 10.6049 26.4777 10.6857 26.2154L11.7046 22.9217L12.5564 22.4204C12.5578 22.4197 12.5592 22.419 12.5599 22.4183L13.2955 21.9788L12.9977 22.9415C12.8974 23.2648 13.0735 23.6093 13.3916 23.7114C13.4521 23.7306 13.5127 23.7398 13.5725 23.7398C13.8286 23.7398 14.066 23.5725 14.1467 23.3102L14.8454 21.0522L15.4154 20.7112L17.3836 21.8689L17.3899 22.5537L15.8226 24.2956C15.5978 24.5451 15.6145 24.9336 15.8594 25.1626C15.975 25.2704 16.1211 25.3243 16.2666 25.3243C16.4294 25.3243 16.5923 25.2576 16.7106 25.125L17.4059 24.3523L17.4142 25.281V26.2111L15.0828 28.8016C14.858 29.0511 14.8747 29.4396 15.1196 29.6686C15.2352 29.7764 15.3813 29.8303 15.5268 29.8303C15.6896 29.8303 15.8525 29.7636 15.9708 29.6311L17.4135 28.0274V30.3868C17.4135 30.7257 17.6836 31.0007 18.0162 31.0007C18.3489 31.0007 18.6189 30.7257 18.6189 30.3868V27.9856L20.0999 29.6311C20.2189 29.7629 20.3811 29.8303 20.544 29.8303C20.6894 29.8303 20.8356 29.7771 20.9511 29.6686C21.1961 29.4396 21.2128 29.0511 20.988 28.8016L18.6189 26.1686V25.2775C18.6189 25.2753 18.6189 25.2739 18.6189 25.2718L18.6106 24.2906L19.3615 25.125C19.4805 25.2569 19.6427 25.3243 19.8055 25.3243C19.951 25.3243 20.0971 25.2711 20.2127 25.1626C20.4577 24.9336 20.4744 24.5451 20.2496 24.2956L18.5939 22.4552L18.5883 21.8604L20.5495 20.7069L21.1578 21.0628L21.8531 23.3102C21.9338 23.5718 22.1718 23.7398 22.4272 23.7398C22.4871 23.7398 22.5483 23.7306 22.6082 23.7114C22.9255 23.6093 23.1016 23.2648 23.0021 22.9415L22.7 21.9653L23.4774 22.4197L24.2875 22.8961L25.3141 26.2147C25.3948 26.4763 25.6328 26.6443 25.8882 26.6443C25.9481 26.6443 26.0093 26.6351 26.0692 26.6159C26.3865 26.5139 26.5626 26.1693 26.4631 25.846L25.8319 23.805L27.8209 24.9747C27.9156 25.0308 28.0193 25.057 28.1216 25.057C28.3297 25.057 28.5322 24.9471 28.6442 24.75C28.8106 24.4565 28.7117 24.0808 28.4236 23.9113L26.3545 22.6948L28.528 22.2035C28.853 22.1305 29.0576 21.8022 28.986 21.4719ZM19.9357 19.6506L17.9793 20.8012L16.023 19.6506V17.3494L17.9793 16.1988L19.9357 17.3494V19.6506Z" fill="#E9DC59"/>
</g>
<circle cx="18" cy="18" r="17" stroke="#E8DC59" stroke-width="2"/>
<defs>
<clipPath id="clip0_405_211">
<rect width="22" height="25" fill="white" transform="translate(7 6)"/>
</clipPath>
</defs>
</svg>
