<svg width="36" height="36" viewBox="0 0 36 36" fill="none" xmlns="http://www.w3.org/2000/svg">
<circle cx="18" cy="18" r="17" stroke="#E8DC59" stroke-width="2"/>
<path d="M16.584 24L16.568 17.296L13.272 22.816H12.12L8.824 17.424V24H6.392V12.8H8.536L12.728 19.76L16.856 12.8H19L19.016 24H16.584ZM26.6463 17.424V18.768H21.0623V17.696L23.8303 15.296C24.1289 15.04 24.3316 14.8267 24.4383 14.656C24.5556 14.4747 24.6143 14.304 24.6143 14.144C24.6143 13.92 24.5183 13.7387 24.3263 13.6C24.1343 13.4613 23.8463 13.392 23.4623 13.392C23.1423 13.392 22.8489 13.456 22.5823 13.584C22.3263 13.7013 22.1236 13.8667 21.9743 14.08L20.6943 13.312C20.9609 12.9067 21.3396 12.5867 21.8303 12.352C22.3209 12.1173 22.9129 12 23.6063 12C24.4703 12 25.1476 12.1867 25.6383 12.56C26.1396 12.9333 26.3903 13.4187 26.3903 14.016C26.3903 14.3573 26.2996 14.6827 26.1183 14.992C25.9476 15.2907 25.6169 15.6533 25.1263 16.08L23.5903 17.424H26.6463Z" fill="#E8DC59"/>
</svg>
