<svg width="36" height="36" viewBox="0 0 36 36" fill="none" xmlns="http://www.w3.org/2000/svg">
<path d="M9.04211 27.6574C9.12629 27.864 9.32097 28 9.54196 28H21.8015C22.0225 28 22.2172 27.864 22.3014 27.6574C22.3856 27.4507 22.3382 27.2059 22.1856 27.0482L18.1973 22.9252H24.8322C25.0532 22.9252 25.2479 22.7893 25.3321 22.5771C25.4163 22.3704 25.3689 22.1257 25.2163 21.9679L12.5095 8.83766C12.3569 8.67448 12.1202 8.62553 11.9202 8.71256C11.715 8.79959 11.5835 9.00628 11.5835 9.22928V22.365C11.5835 22.675 11.8255 22.9252 12.1254 22.9252H13.1409L9.15786 27.0482C9.00528 27.2059 8.95792 27.4452 9.04211 27.6574ZM12.6674 10.5836L23.5273 21.8102H12.6674V10.5836ZM16.6662 22.9252L20.4914 26.8795H10.8468L14.672 22.9252H16.6662Z" fill="#E9DC59"/>
<path d="M24.8322 8C24.1745 8 23.5852 8.3046 23.1906 8.78325H16.4084C15.7612 8.78325 15.235 9.32717 15.235 9.99619C15.235 10.6652 15.7612 11.2091 16.4084 11.2091H22.8802C23.0749 11.6334 23.3958 11.9815 23.7904 12.2045V18.8404C23.7904 19.5094 24.3166 20.0533 24.9638 20.0533C25.611 20.0533 26.1371 19.5094 26.1371 18.8404V12.0196C26.658 11.6116 26.9948 10.9644 26.9948 10.2355C27 9.00626 26.0266 8 24.8322 8ZM24.969 19.1558C24.8007 19.1558 24.6639 19.0144 24.6639 18.8404V12.471C24.7217 12.4765 24.7744 12.4819 24.8322 12.4819C24.9848 12.4819 25.1322 12.4656 25.2742 12.433V18.8458C25.2742 19.0144 25.1374 19.1558 24.969 19.1558ZM24.8322 11.5844C24.1167 11.5844 23.5326 10.9807 23.5326 10.241C23.5326 9.50122 24.1167 8.89747 24.8322 8.89747C25.5478 8.89747 26.1319 9.50122 26.1319 10.241C26.1319 10.9807 25.5478 11.5844 24.8322 11.5844ZM16.1032 9.99619C16.1032 9.82214 16.24 9.68072 16.4084 9.68072H22.7381C22.6908 9.86021 22.6645 10.0451 22.6645 10.241C22.6645 10.2627 22.6645 10.2899 22.6697 10.3117H16.4084C16.24 10.3117 16.1032 10.1702 16.1032 9.99619Z" fill="#E9DC59"/>
<circle cx="18" cy="18" r="17" stroke="#E8DC59" stroke-width="2"/>
</svg>
