<svg width="36" height="36" viewBox="0 0 36 36" fill="none" xmlns="http://www.w3.org/2000/svg">
<path d="M13.9641 11.3275L18.5835 15.7791L34.7377 0.211565C35.2077 -0.241356 36 0.0821588 36 0.716249V9.45116C36 9.64527 35.9194 9.82644 35.7851 9.95584L18.9192 26.1963C18.6237 26.481 18.1538 26.4681 17.8583 26.1834L8.20337 16.5556C7.92137 16.2709 7.9348 15.8179 8.23022 15.5462L12.9301 11.3146C13.239 11.0558 13.6821 11.0558 13.9641 11.3275Z" fill="#E8DC59"/>
<path d="M35.248 0.0045166C35.06 0.0045166 34.8854 0.0692196 34.7243 0.211566L18.5835 15.7791L13.9641 11.3275C13.8164 11.1852 13.6284 11.1205 13.4404 11.1205C13.2524 11.1205 13.0778 11.1852 12.9301 11.3146L8.23022 15.5462C7.9348 15.8179 7.92137 16.2709 8.20337 16.5556L17.8583 26.1834C18.006 26.3257 18.194 26.4034 18.3955 26.4034C18.5835 26.4034 18.7715 26.3387 18.9192 26.1963L35.7717 9.95584C35.906 9.82644 35.9866 9.64527 35.9866 9.45116V0.71625C36 0.28921 35.624 0.0045166 35.248 0.0045166Z" fill="#E8DC59"/>
<circle cx="18" cy="18" r="17" stroke="#E8DC59" stroke-width="2"/>
</svg>
