<svg width="250" height="265" viewBox="0 0 250 265" fill="none" xmlns="http://www.w3.org/2000/svg">
<g clip-path="url(#clip0_430_224)">
<g opacity="0.1">
<mask id="mask0_430_224" style="mask-type:alpha" maskUnits="userSpaceOnUse" x="0" y="0" width="250" height="343">
<path d="M0.5 0.5H226C238.979 0.5 249.5 11.0213 249.5 24V342.5H50C22.6619 342.5 0.5 320.338 0.5 293V0.5Z" fill="url(#paint0_linear_430_224)" stroke="#6246E5"/>
</mask>
<g mask="url(#mask0_430_224)">
<path d="M271.123 171.797C271.123 221.251 230.033 261.362 179.319 261.362C128.606 261.362 87.516 221.251 87.516 171.797C87.516 122.342 128.606 82.231 179.319 82.231C230.033 82.231 271.123 122.342 271.123 171.797Z" stroke="black"/>
<path d="M274.766 162.316C274.766 217.661 228.782 262.547 172.032 262.547C115.282 262.547 69.2982 217.661 69.2982 162.316C69.2982 106.971 115.282 62.0845 172.032 62.0845C228.782 62.0845 274.766 106.971 274.766 162.316Z" stroke="black"/>
<path d="M278.41 154.613C278.41 215.194 228.076 264.325 165.96 264.325C103.844 264.325 53.5096 215.194 53.5096 154.613C53.5096 94.0326 103.844 44.9014 165.96 44.9014C228.076 44.9014 278.41 94.0326 278.41 154.613Z" stroke="black"/>
<path d="M280.839 143.355C280.839 208.517 226.699 261.362 159.887 261.362C93.0757 261.362 38.9354 208.517 38.9354 143.355C38.9354 78.1924 93.0757 25.3472 159.887 25.3472C226.699 25.3472 280.839 78.1924 280.839 143.355Z" stroke="black"/>
<path d="M283.268 132.393C283.268 201.974 225.457 258.4 154.118 258.4C82.7791 258.4 24.9684 201.974 24.9684 132.393C24.9684 62.8133 82.7791 6.38672 154.118 6.38672C225.457 6.38672 283.268 62.8133 283.268 132.393Z" stroke="black"/>
<path d="M286.304 119.95C286.304 196.402 222.784 258.4 144.402 258.4C66.0201 258.4 2.5 196.402 2.5 119.95C2.5 43.4977 66.0201 -18.5 144.402 -18.5C222.784 -18.5 286.304 43.4977 286.304 119.95Z" stroke="black"/>
</g>
</g>
</g>
<defs>
<linearGradient id="paint0_linear_430_224" x1="177.31" y1="9.62325" x2="-3.25095" y2="341.23" gradientUnits="userSpaceOnUse">
<stop stop-color="#747DEF"/>
<stop offset="1" stop-color="#5E3BE1"/>
</linearGradient>
<clipPath id="clip0_430_224">
<rect width="250" height="265" fill="white"/>
</clipPath>
</defs>
</svg>
