<svg width="370" height="285" viewBox="0 0 370 285" fill="none" xmlns="http://www.w3.org/2000/svg">
<g clip-path="url(#clip0_430_214)">
<g opacity="0.1">
<mask id="mask0_430_214" style="mask-type:alpha" maskUnits="userSpaceOnUse" x="-4" y="-83" width="414" height="375">
<path d="M-3.49997 -82.4928L409.5 -76.5072L409.5 291.485L-3.49996 279.015L-3.49997 -82.4928Z" fill="url(#paint0_linear_430_214)" stroke="black"/>
</mask>
<g mask="url(#mask0_430_214)">
<path d="M103.185 376.359C33.862 376.359 -22.3549 318.832 -22.3549 247.844C-22.3549 176.856 33.862 119.329 103.185 119.329C172.507 119.329 228.724 176.856 228.724 247.844C228.724 318.832 172.507 376.359 103.185 376.359Z" stroke="black"/>
<path d="M116.452 381.451C38.8861 381.451 -24.0132 317.084 -24.0132 237.658C-24.0132 158.232 38.8861 93.8652 116.452 93.8652C194.018 93.8652 256.917 158.232 256.917 237.658C256.917 317.084 194.018 381.451 116.452 381.451Z" stroke="black"/>
<path d="M127.232 386.544C42.3384 386.544 -26.5009 316.097 -26.5009 229.171C-26.5009 142.245 42.3384 71.7974 127.232 71.7974C212.125 71.7974 280.964 142.245 280.964 229.171C280.964 316.097 212.125 386.544 127.232 386.544Z" stroke="black"/>
<path d="M142.987 389.94C51.6823 389.94 -22.3545 314.172 -22.3545 220.683C-22.3545 127.194 51.6823 51.4267 142.987 51.4268C234.291 51.4268 308.328 127.194 308.328 220.683C308.328 314.172 234.291 389.94 142.987 389.94Z" stroke="black"/>
<path d="M158.327 393.335C60.84 393.335 -18.2086 312.437 -18.2086 212.62C-18.2086 112.803 60.84 31.9048 158.327 31.9048C255.814 31.9048 334.863 112.803 334.863 212.62C334.863 312.437 255.814 393.335 158.327 393.335Z" stroke="black"/>
<path d="M175.74 397.579C68.6362 397.579 -18.2086 308.701 -18.2086 199.039C-18.2086 89.378 68.6362 0.49999 175.74 0.499993C282.844 0.499997 369.689 89.3781 369.689 199.039C369.689 308.701 282.844 397.579 175.74 397.579Z" stroke="black"/>
</g>
</g>
</g>
<defs>
<linearGradient id="paint0_linear_430_214" x1="310.533" y1="184.708" x2="-164.503" y2="-60.5299" gradientUnits="userSpaceOnUse">
<stop stop-color="#747DEF"/>
<stop offset="1" stop-color="#5E3BE1"/>
</linearGradient>
<clipPath id="clip0_430_214">
<rect width="370" height="285" fill="white"/>
</clipPath>
</defs>
</svg>
