<svg width="16" height="16" viewBox="0 0 16 16" fill="none" xmlns="http://www.w3.org/2000/svg">
<path fill-rule="evenodd" clip-rule="evenodd" d="M8 1C8.55228 1 9 1.44772 9 2V7.58579L10.6259 5.95989C11.0164 5.56937 11.6496 5.56937 12.0401 5.95989C12.4306 6.35042 12.4306 6.98358 12.0401 7.37411L8.70711 10.7071C8.31658 11.0976 7.68342 11.0976 7.29289 10.7071L3.95989 7.37411C3.56937 6.98358 3.56937 6.35042 3.95989 5.95989C4.35042 5.56937 4.98358 5.56937 5.37411 5.95989L7 7.58579V2C7 1.44772 7.44772 1 8 1ZM2 9C2.55228 9 3 9.44772 3 10V12.6665C3.00014 12.7549 3.03531 12.8397 3.09783 12.9022C3.1604 12.9648 3.24525 12.9999 3.33375 13H12.6663C12.7547 12.9999 12.8396 12.9648 12.9022 12.9022C12.9648 12.8396 12.9999 12.7547 13 12.6663V10C13 9.44772 13.4477 9 14 9C14.5523 9 15 9.44772 15 10V12.667C14.9995 13.2854 14.7537 13.8791 14.3164 14.3164C13.8791 14.7537 13.2862 14.9995 12.6677 15H3.333C2.71459 14.9995 2.12089 14.7537 1.68361 14.3164C1.24633 13.8791 1.00046 13.2862 1 12.6677L1 10C1 9.44772 1.44772 9 2 9Z" fill="#E9DC5A"/>
</svg>
