<svg width="21" height="24" viewBox="0 0 21 24" fill="none" xmlns="http://www.w3.org/2000/svg">
<g clip-path="url(#clip0_330_1180)">
<path d="M0.43241 10.223C0.162154 10.5632 0 10.9935 0 11.4633V22.0243C0 23.1131 0.873469 24 1.94585 24H2.20962L2.25718 24.0483L2.30475 24H18.6953L18.7428 24.0483L18.7904 24H19.0542C20.1265 24 21 23.1131 21 22.0243V11.4633C21 10.9935 20.8378 10.5632 20.5676 10.223C20.5698 10.0869 20.52 9.94859 20.4162 9.84322L10.8665 0.147077C10.6719 -0.0504904 10.3281 -0.0504904 10.1357 0.147077L0.583754 9.84322C0.479975 9.94859 0.430248 10.0869 0.43241 10.223ZM3.16957 23.1219L8.04932 18.1674L10.1335 20.2835C10.2308 20.3823 10.3627 20.4372 10.4989 20.4372C10.6351 20.4372 10.767 20.3823 10.8643 20.2835L12.9485 18.1674L17.8283 23.1219H3.16957ZM4.73489 13.6146V9.92664H16.4381V13.4367L10.4989 19.4669L4.73489 13.6146ZM20.1352 11.4633V22.0243C20.1352 22.5534 19.7633 22.9968 19.2725 23.1L13.6815 17.4254L20.0228 10.9869C20.0919 11.1318 20.1352 11.292 20.1352 11.4633ZM10.4989 1.26223L19.3179 10.2164L17.0586 12.5104V9.61053C17.0586 9.43711 16.9202 9.29443 16.7472 9.29443H4.42356C4.25275 9.29443 4.11222 9.43492 4.11222 9.61053V12.686L1.68208 10.2164L10.4989 1.26223ZM0.86482 11.4633C0.86482 11.292 0.908061 11.1318 0.977247 10.9869L7.31854 17.4254L1.72748 23.1C1.23453 22.9968 0.86482 22.5556 0.86482 22.0243V11.4633Z" fill="white"/>
</g>
<defs>
<clipPath id="clip0_330_1180">
<rect width="21" height="24" fill="white"/>
</clipPath>
</defs>
</svg>
