<svg width="19" height="20" viewBox="0 0 19 20" fill="none" xmlns="http://www.w3.org/2000/svg">
<g clip-path="url(#clip0_330_1184)">
<path d="M1.12986 3.82623C1.05174 3.91766 0.977434 4.01307 0.908842 4.11444C0.287703 4.68888 -0.203874 5.95105 0.0857371 7.50542C1.3242 14.2397 6.76203 19.3699 13.3088 19.9821C13.4498 19.996 13.5907 20.0019 13.7298 20.0019C14.4824 20.0019 15.1912 19.8091 15.7571 19.4474C16.0296 19.2824 16.2735 19.0777 16.4792 18.8391L17.0413 18.1912C18.1369 16.927 18.0435 14.9672 16.8317 13.8223L15.8829 12.9278C15.3341 12.409 14.6273 12.1248 13.8937 12.1248C13.0573 12.1248 12.2551 12.4965 11.6949 13.1425L11.1329 13.7904C10.9138 14.0429 10.7366 14.3291 10.6089 14.6392C8.36632 13.6593 6.52767 11.9022 5.39209 9.66006C5.80365 9.48514 6.17519 9.21482 6.47623 8.86896L7.0383 8.22098C7.56989 7.60878 7.84045 6.81569 7.80044 5.99081C7.76043 5.16592 7.41556 4.40663 6.82872 3.85207L5.87986 2.95762C5.33303 2.44281 4.62806 2.15857 3.8926 2.15857C3.05615 2.15857 2.25401 2.53026 1.69193 3.17626L1.12986 3.82623ZM2.25591 3.70896C2.67318 3.22794 3.26765 2.95364 3.89069 2.95364C4.43752 2.95364 4.96149 3.16433 5.36732 3.54796L6.31618 4.44241C6.7525 4.85386 7.00972 5.41836 7.0383 6.03255C7.06879 6.64475 6.86682 7.23509 6.47242 7.69027L5.91035 8.33825C5.63979 8.65032 5.29683 8.87691 4.91386 8.99816L4.74237 9.05183C4.63568 9.08562 4.54803 9.16711 4.5023 9.27445C4.45848 9.38178 4.46039 9.50502 4.50992 9.61037L4.58995 9.77733C5.83413 12.3832 7.94905 14.4086 10.5441 15.478L10.6927 15.5376C10.7899 15.5774 10.8985 15.5734 10.9938 15.5277C11.089 15.482 11.1614 15.3965 11.1938 15.2931L11.2415 15.1341C11.3386 14.834 11.4911 14.5617 11.6949 14.3251L12.257 13.6772C12.6743 13.1961 13.2707 12.9198 13.8918 12.9198C14.4386 12.9198 14.9626 13.1305 15.3684 13.5142L16.3173 14.4086C17.2185 15.2574 17.2871 16.7143 16.4735 17.6545L15.9114 18.3025C15.7571 18.4794 15.5761 18.6324 15.3646 18.7616C14.8254 19.1075 14.1204 19.2585 13.3754 19.189C7.16596 18.6066 2.00822 13.7408 0.832628 7.35237C0.584935 6.01267 1.05174 5.02877 1.42709 4.69484C1.43852 4.68491 1.44996 4.67298 1.46139 4.65907L1.48806 4.62925C1.4995 4.61534 1.50902 4.60341 1.51855 4.5895C1.5719 4.508 1.63096 4.43048 1.69384 4.35694L2.25591 3.70896Z" fill="white"/>
<path d="M18.9999 9.44345C18.9999 4.23574 14.9397 0 9.9496 0C9.51328 0 9.15698 0.371695 9.15698 0.826873C9.15698 1.28205 9.51328 1.65375 9.9496 1.65375C14.067 1.65375 17.4147 5.14808 17.4147 9.44345C17.4147 9.89862 17.771 10.2703 18.2073 10.2703C18.6436 10.2703 18.9999 9.89862 18.9999 9.44345ZM18.2073 9.87278C17.9806 9.87278 17.7958 9.67998 17.7958 9.44345C17.7958 4.92944 14.2766 1.25621 9.9496 1.25621C9.72287 1.25621 9.53805 1.06341 9.53805 0.826873C9.53805 0.59034 9.72287 0.397535 9.9496 0.397535C14.7301 0.397535 18.6189 4.45438 18.6189 9.44345C18.6189 9.67998 18.4341 9.87278 18.2073 9.87278Z" fill="white"/>
<path d="M9.85243 3.07495C9.41611 3.07495 9.05981 3.44665 9.05981 3.90182C9.05981 4.35899 9.41611 4.7287 9.85243 4.7287C12.398 4.7287 14.4691 6.8893 14.4691 9.54484C14.4691 10 14.8254 10.3717 15.2617 10.3717C15.698 10.3717 16.0543 10 16.0543 9.54484C16.0524 5.97696 13.2706 3.07495 9.85243 3.07495ZM15.2598 9.97418C15.033 9.97418 14.8482 9.78137 14.8482 9.54484C14.8482 6.67066 12.6075 4.33116 9.85053 4.33116C9.62379 4.33116 9.43898 4.13836 9.43898 3.90182C9.43898 3.66529 9.62379 3.47249 9.85053 3.47249C13.0591 3.47249 15.6713 6.1956 15.6713 9.54484C15.6713 9.78137 15.4865 9.97418 15.2598 9.97418Z" fill="white"/>
</g>
<defs>
<clipPath id="clip0_330_1184">
<rect width="19" height="20" fill="white"/>
</clipPath>
</defs>
</svg>
