<svg width="15" height="23" viewBox="0 0 15 23" fill="none" xmlns="http://www.w3.org/2000/svg">
<g clip-path="url(#clip0_330_1174)">
<path d="M14.7899 8.54371C14.93 8.00755 15.0054 7.45651 15.0054 6.91042C15 3.10274 11.6379 0 7.5 0C3.36746 0 0 3.10274 0 6.91042C0 7.46147 0.0700431 8.00755 0.210129 8.54371C0.409483 9.66566 0.684267 10.5692 1.02909 11.2344C1.76724 12.6592 4.8653 17.3704 6.2931 19.515C4.36961 19.7434 3.47522 20.5029 3.47522 21.2227C3.47522 22.0766 4.73599 23 7.5 23C10.264 23 11.5248 22.0766 11.5248 21.2227C11.5248 20.5029 10.6304 19.7384 8.7069 19.515C10.1293 17.3704 13.2328 12.6592 13.9709 11.2344C14.3103 10.5692 14.5905 9.66566 14.7899 8.54371ZM10.3664 21.2227C10.2856 21.4263 9.32112 21.9327 7.5 21.9327C5.66272 21.9327 4.69289 21.4164 4.63362 21.2327C4.6875 21.054 5.47414 20.6221 6.97198 20.5327C6.98815 20.5575 7.00431 20.5774 7.0097 20.5873C7.11746 20.7462 7.30065 20.8405 7.5 20.8405C7.69935 20.8405 7.88793 20.7462 7.99569 20.5873C8.00108 20.5774 8.01724 20.5575 8.03341 20.5327C9.50431 20.6171 10.2963 21.0391 10.3664 21.2227ZM2.07435 10.7777C1.78341 10.2117 1.53017 9.37276 1.34698 8.35506C1.34698 8.34017 1.34159 8.32527 1.33621 8.31535C1.21228 7.85862 1.15302 7.38701 1.15302 6.91539C1.15302 3.6935 3.99784 1.07231 7.49461 1.07231C10.9914 1.07231 13.8362 3.6935 13.8362 6.91539C13.8362 7.38701 13.7716 7.85862 13.653 8.31535C13.6476 8.33024 13.6476 8.34513 13.6422 8.35506C13.4591 9.37276 13.2112 10.2117 12.9149 10.7777C12.1713 12.2174 8.77694 17.3555 7.48922 19.2866C6.21767 17.3555 2.82328 12.2174 2.07435 10.7777Z" fill="white"/>
<path d="M7.50001 3.00342C5.28018 3.00342 3.47522 4.66649 3.47522 6.71181C3.47522 8.75714 5.28018 10.4202 7.50001 10.4202C9.71983 10.4202 11.5248 8.75714 11.5248 6.71181C11.5248 4.66649 9.71983 3.00342 7.50001 3.00342ZM4.63363 6.71181C4.63363 5.25725 5.92134 4.07076 7.50001 4.07076C9.07867 4.07076 10.3664 5.25725 10.3664 6.71181C10.3664 8.16638 9.07867 9.35287 7.50001 9.35287C5.92134 9.35287 4.63363 8.17134 4.63363 6.71181Z" fill="white"/>
</g>
<defs>
<clipPath id="clip0_330_1174">
<rect width="15" height="23" fill="white"/>
</clipPath>
</defs>
</svg>
