<svg width="22" height="22" viewBox="0 0 22 22" fill="none" xmlns="http://www.w3.org/2000/svg">
<g clip-path="url(#clip0_330_1190)">
<path d="M11.0012 19.3843C6.37746 19.3843 2.61816 15.6225 2.61816 11.0012C2.61816 6.37746 6.37993 2.61816 11.0012 2.61816C15.625 2.61816 19.3843 6.37993 19.3843 11.0012C19.3843 15.6225 15.6225 19.3843 11.0012 19.3843ZM11.0012 4.10014C7.19501 4.10014 4.10014 7.19501 4.10014 11.0012C4.10014 14.8075 7.19501 17.9023 11.0012 17.9023C14.8075 17.9023 17.9023 14.8075 17.9023 11.0012C17.9023 7.19501 14.805 4.10014 11.0012 4.10014Z" fill="white"/>
<path d="M11.0012 22C4.935 22 0 17.065 0 11.0012C0 4.93747 4.935 0 11.0012 0C17.0675 0 22.0025 4.935 22.0025 11.0012C22.0025 17.0675 17.065 22 11.0012 22ZM11.0012 1.48198C5.75255 1.48198 1.48198 5.75255 1.48198 11.0012C1.48198 16.2499 5.75255 20.5205 11.0012 20.5205C16.2499 20.5205 20.5205 16.2499 20.5205 11.0012C20.518 5.75255 16.2499 1.48198 11.0012 1.48198Z" fill="white"/>
<path d="M12.3449 11.0013C12.3449 11.7447 11.7422 12.3449 11.0013 12.3449C10.2578 12.3449 9.65759 11.7422 9.65759 11.0013C9.65759 10.2603 10.2603 9.65759 11.0013 9.65759C11.7422 9.65759 12.3449 10.2578 12.3449 11.0013Z" fill="white"/>
<path d="M13.8713 15.6423L10.2454 11.2384V5.78467H11.7274V10.7048L15.0149 14.6988L13.8713 15.6423Z" fill="white"/>
</g>
<defs>
<clipPath id="clip0_330_1190">
<rect width="22" height="22" fill="white"/>
</clipPath>
</defs>
</svg>
