<svg width="52" height="44" viewBox="0 0 52 44" fill="none" xmlns="http://www.w3.org/2000/svg">
<g clip-path="url(#clip0_330_1113)">
<path d="M10.686 22.7559C10.249 22.2785 10.249 21.5226 10.7257 21.1248C14.9763 17.4647 20.3789 15.4358 26.0198 15.4358C31.6608 15.4358 37.0236 17.425 41.2742 21.085C41.7509 21.4828 41.7906 22.2387 41.3537 22.7161C40.9167 23.1537 40.2414 23.1935 39.8044 22.7957C35.9511 19.4937 31.1046 17.7034 26.0198 17.7034C20.935 17.7034 16.0488 19.4937 12.2352 22.7957C11.7585 23.1935 11.0832 23.1935 10.686 22.7559Z" fill="#272525"/>
<path d="M0.3178 11.4575C-0.119174 10.9801 -0.119174 10.264 0.357525 9.8264C7.42857 3.5009 16.5256 0 26.0596 0C35.5141 0 44.5714 3.46112 51.6425 9.74684C52.1192 10.1844 52.1192 10.9005 51.6822 11.3779C51.2452 11.8156 50.5699 11.8553 50.1329 11.4177C43.4989 5.49005 34.9977 2.26763 26.0596 2.26763C17.0817 2.26763 8.54087 5.52984 1.9068 11.4973C1.4301 11.8951 0.754775 11.8951 0.3178 11.4575Z" fill="#272525"/>
<path d="M26.0199 44C21.8885 44 18.5118 40.6184 18.5118 36.4412C18.5118 32.264 21.8885 28.8825 26.0199 28.8825C30.1513 28.8825 33.5676 32.264 33.5676 36.4412C33.5676 40.6184 30.1513 44 26.0199 44ZM26.0199 31.1899C23.1199 31.1899 20.7364 33.5769 20.7364 36.481C20.7364 39.3852 23.1199 41.7722 26.0199 41.7722C28.9198 41.7722 31.3033 39.3852 31.3033 36.481C31.2636 33.5769 28.9198 31.1899 26.0199 31.1899Z" fill="#272525"/>
</g>
<defs>
<clipPath id="clip0_330_1113">
<rect width="52" height="44" fill="white"/>
</clipPath>
</defs>
</svg>
