<svg width="62" height="62" viewBox="0 0 62 62" fill="none" xmlns="http://www.w3.org/2000/svg">
<path d="M31.0304 50.2801C20.2214 50.2801 11.4163 41.475 11.4163 30.666C11.4163 19.857 20.2214 11.0519 31.0304 11.0519C41.8394 11.0519 50.6445 19.857 50.6445 30.666C50.6445 41.475 41.8394 50.2801 31.0304 50.2801ZM31.0304 12.7826C21.1626 12.7826 13.1469 20.7982 13.1469 30.666C13.1469 40.5338 21.1626 48.5495 31.0304 48.5495C40.8981 48.5495 48.9138 40.5338 48.9138 30.666C48.9138 20.7982 40.8981 12.7826 31.0304 12.7826Z" fill="#272525"/>
<path d="M31 8.56219C30.5142 8.56219 30.1498 8.16748 30.1498 7.71205V0.850147C30.1498 0.394711 30.5142 0 31 0C31.4858 0 31.8501 0.394711 31.8501 0.850147V7.68168C31.8501 8.16748 31.4858 8.56219 31 8.56219Z" fill="#272525"/>
<path d="M31 62C30.5142 62 30.1498 61.6053 30.1498 61.1499V54.3183C30.1498 53.8325 30.5446 53.4682 31 53.4682C31.4858 53.4682 31.8501 53.8629 31.8501 54.3183V61.1499C31.8501 61.6053 31.4858 62 31 62Z" fill="#272525"/>
<path d="M47.4868 15.3634C47.2742 15.3634 47.0313 15.2723 46.8795 15.1205C46.5455 14.7865 46.5455 14.24 46.8795 13.906L51.7071 9.07836C52.0411 8.74437 52.5876 8.74437 52.9216 9.07836C53.2556 9.41234 53.2556 9.95887 52.9216 10.2929L48.094 15.1205C47.9422 15.3026 47.6993 15.3634 47.4868 15.3634Z" fill="#272525"/>
<path d="M9.68559 53.1645C9.47305 53.1645 9.23015 53.0735 9.07834 52.9216C8.74435 52.5877 8.74435 52.0411 9.07834 51.7072L13.906 46.8795C14.2399 46.5455 14.7865 46.5455 15.1205 46.8795C15.4544 47.2135 15.4544 47.76 15.1205 48.094L10.2928 52.9216C10.141 53.1038 9.89812 53.1645 9.68559 53.1645Z" fill="#272525"/>
<path d="M61.1499 31.8502H54.3183C53.8325 31.8502 53.4682 31.4554 53.4682 31C53.4682 30.5142 53.8629 30.1499 54.3183 30.1499H61.1499C61.6356 30.1499 62 30.5446 62 31C62 31.4858 61.6053 31.8502 61.1499 31.8502Z" fill="#272525"/>
<path d="M7.68168 31.8502H0.850147C0.394711 31.8502 0 31.4858 0 31C0 30.5142 0.394711 30.1499 0.850147 30.1499H7.68168C8.16748 30.1499 8.53183 30.5446 8.53183 31C8.56219 31.4858 8.16748 31.8502 7.68168 31.8502Z" fill="#272525"/>
<path d="M52.3144 53.1645C52.1018 53.1645 51.859 53.0735 51.7071 52.9216L46.8795 48.094C46.5455 47.76 46.5455 47.2135 46.8795 46.8795C47.2135 46.5455 47.76 46.5455 48.094 46.8795L52.9216 51.7072C53.2556 52.0411 53.2556 52.5877 52.9216 52.9216C52.7698 53.1038 52.5269 53.1645 52.3144 53.1645Z" fill="#272525"/>
<path d="M14.5132 15.3634C14.3007 15.3634 14.0881 15.2723 13.906 15.1205L9.07834 10.2929C8.74435 9.95887 8.74435 9.41234 9.07834 9.07836C9.41233 8.74437 9.95885 8.74437 10.2928 9.07836L15.1205 13.906C15.4544 14.24 15.4544 14.7865 15.1205 15.1205C14.9686 15.3026 14.7257 15.3634 14.5132 15.3634Z" fill="#272525"/>
</svg>
