<svg width="62" height="62" viewBox="0 0 62 62" fill="none" xmlns="http://www.w3.org/2000/svg">
<path d="M31 62C13.8965 62 0 48.0738 0 31C0 13.8965 13.8965 0 31 0C48.1034 0 62 13.8965 62 31C62 48.0738 48.0738 62 31 62ZM31 1.69253C14.8467 1.69253 1.69253 14.8467 1.69253 31C1.69253 47.1533 14.8467 60.3075 31 60.3075C47.1533 60.3075 60.3075 47.1533 60.3075 31C60.3075 14.8467 47.1533 1.69253 31 1.69253Z" fill="#272525"/>
<path d="M21.4386 44.4215C21.2308 44.4215 21.0229 44.3324 20.8745 44.1839L13.9559 37.7404C13.6293 37.4138 13.5996 36.8793 13.9262 36.5527C14.2528 36.2261 14.7873 36.1964 15.1139 36.523L21.4386 42.432L46.0248 17.9943C46.3515 17.6676 46.886 17.6676 47.2126 17.9943C47.5392 18.3209 47.5392 18.8554 47.2126 19.182L22.0325 44.1839C21.8543 44.3621 21.6465 44.4215 21.4386 44.4215Z" fill="#272525"/>
</svg>
