<svg width="60" height="38" viewBox="0 0 60 38" fill="none" xmlns="http://www.w3.org/2000/svg">
<g clip-path="url(#clip0_330_1080)">
<path d="M55.9029 31.1496V4.82296C55.9029 4.11641 55.4477 3.50202 54.7496 3.3177C51.4416 2.42684 41.1229 0 27.8604 0C14.5979 0 4.43096 2.42684 1.15326 3.3177C0.455235 3.50202 0 4.11641 0 4.82296V30.5966C0 31.5796 0.849772 32.3169 1.79059 32.1326C6.10015 31.3953 17.39 29.6136 27.8604 29.6136C38.2701 29.6136 49.6813 31.7639 54.0516 32.6548C55.0228 32.9006 55.9029 32.1633 55.9029 31.1496ZM1.72989 4.94584C4.18816 4.23929 14.0212 1.75101 27.8604 1.75101C41.6995 1.75101 51.6844 4.27001 54.2033 4.94584V30.9345C50.7132 30.1973 39.1806 27.924 27.8604 27.924C16.5706 27.924 5.12898 29.7979 1.72989 30.4123V4.94584Z" fill="#272525"/>
<path d="M58.2701 10.3832V36.1568C54.78 35.4196 43.2474 33.1463 31.9272 33.1463C20.4249 33.1463 8.80123 35.0817 5.61458 35.6653C5.129 35.7575 4.82551 36.2183 4.91655 36.6791C5.0076 37.1399 5.43249 37.4471 5.91807 37.3856C9.04402 36.8327 20.5463 34.8973 31.9272 34.8973C42.519 34.8973 54.082 37.1091 58.3308 38C59.1806 38.1843 60 37.5085 60 36.6176V10.3832C60 9.89168 59.6055 9.52304 59.1502 9.52304C58.6646 9.52304 58.2701 9.89168 58.2701 10.3832Z" fill="#272525"/>
<path d="M27.9514 24.9135V22.5481C31.654 21.9337 34.5068 18.6774 34.5068 14.7453C34.5068 10.8133 31.654 7.55699 27.9514 6.9426V4.76151C27.9514 4.27 27.5569 3.90137 27.1017 3.90137C26.6161 3.90137 26.2519 4.30072 26.2519 4.76151V6.88116C22.1548 7.12691 18.8771 10.5675 18.8771 14.7761C18.8771 18.9846 22.1548 22.3945 26.2215 22.6403V24.9135C26.2215 25.405 26.6161 25.7736 27.0713 25.7736C27.5569 25.8044 27.9514 25.405 27.9514 24.9135ZM20.607 14.7761C20.607 11.3662 23.3384 8.60145 26.7071 8.60145C30.0759 8.60145 32.8073 11.3662 32.8073 14.7761C32.8073 18.1859 30.0759 20.9507 26.7071 20.9507C23.3384 20.92 20.607 18.1552 20.607 14.7761Z" fill="#272525"/>
</g>
<defs>
<clipPath id="clip0_330_1080">
<rect width="60" height="38" fill="white"/>
</clipPath>
</defs>
</svg>
