<svg width="66" height="66" viewBox="0 0 66 66" fill="none" xmlns="http://www.w3.org/2000/svg">
<g clip-path="url(#clip0_330_1103)">
<path d="M36.5293 66H29.4707C28.1045 66 26.9985 64.894 26.9985 63.5278V60.5352C26.9985 59.104 26.0877 57.8354 24.7215 57.3475C23.6481 56.9896 22.6072 56.5343 21.5663 56.0463C20.2977 55.4283 18.8014 55.656 17.8255 56.6318L15.6461 58.8112C14.7028 59.7546 13.0764 59.7546 12.1656 58.8112L7.18876 53.8344C6.21291 52.8585 6.21291 51.2972 7.18876 50.3539L9.40069 48.1419C10.3765 47.1661 10.6042 45.6698 9.9862 44.4337C9.49827 43.4253 9.04288 42.3519 8.68507 41.2785C8.22967 39.9123 6.96106 39.0015 5.52982 39.0015H2.47215C1.10596 39.0015 0 37.8955 0 36.5293V29.4707C0 28.1045 1.10596 26.9985 2.47215 26.9985H5.6274C7.02612 26.9985 8.29473 26.0877 8.75012 24.7541C9.10793 23.7132 9.5308 22.6723 10.0513 21.6639C10.6693 20.3953 10.4416 18.899 9.46575 17.9231L7.18876 15.6461C6.70084 15.1907 6.44061 14.5727 6.44061 13.8896C6.44061 13.239 6.70084 12.621 7.15623 12.1331L12.1331 7.15623C13.0764 6.21291 14.7028 6.21291 15.6136 7.15623L17.9231 9.46575C18.899 10.4416 20.3953 10.6693 21.6639 10.0513C22.6722 9.59586 23.7132 9.14046 24.7866 8.78265C26.1203 8.32726 26.9985 7.09118 26.9985 5.69246V2.47215C26.9985 1.10596 28.1045 0 29.4707 0H36.4968C37.863 0 38.9689 1.10596 38.9689 2.47215V5.69246C38.9689 7.09118 39.8797 8.32726 41.2134 8.78265C42.2868 9.14046 43.3277 9.59586 44.3361 10.0838C45.6047 10.7018 47.101 10.4741 48.0769 9.49827L50.3864 7.18876C51.3622 6.21291 52.9236 6.21291 53.8995 7.18876L58.8763 12.1656C59.3317 12.621 59.5919 13.239 59.5919 13.9221C59.5919 14.5727 59.3317 15.1907 58.8763 15.6787L56.5993 17.9556C55.6235 18.9315 55.3958 20.4278 56.0138 21.6964C56.5017 22.7048 56.9571 23.7457 57.3149 24.7866C57.7703 26.1203 59.0389 27.031 60.4376 27.031H63.5929C64.9591 27.031 66.065 28.137 66.065 29.5032V36.5293C66.065 37.8955 64.9591 39.0015 63.5929 39.0015H60.5027C59.0715 39.0015 57.8354 39.9123 57.3475 41.2785C56.9896 42.3519 56.5342 43.3928 56.0463 44.4337C55.4283 45.6698 55.656 47.1661 56.6318 48.1419L58.8438 50.3539C59.8196 51.3297 59.8196 52.8911 58.8438 53.8344L53.8669 58.8112C52.8911 59.7871 51.3297 59.7871 50.3539 58.8112L48.1745 56.6318C47.1986 55.656 45.7023 55.4283 44.4337 56.0463C43.4253 56.5668 42.3519 56.9896 41.2785 57.3475C39.9123 57.8029 39.0015 59.104 39.0015 60.5352V63.5278C39.0015 64.894 37.8955 66 36.5293 66ZM20.1025 53.8669C20.8832 53.8669 21.6639 54.0296 22.3795 54.4199C23.3228 54.8753 24.2987 55.2982 25.307 55.6235C27.4214 56.3391 28.8526 58.3233 28.8526 60.5352V63.5278C28.8526 63.8857 29.1454 64.1459 29.4707 64.1459H36.4968C36.8546 64.1459 37.1148 63.8531 37.1148 63.5278V60.5352C37.1148 58.3233 38.5461 56.3391 40.6604 55.6235C41.6363 55.2982 42.6446 54.8753 43.588 54.4199C45.5397 53.4441 47.9142 53.8019 49.4431 55.3632L51.6225 57.5426C51.8827 57.8029 52.273 57.7703 52.5007 57.5426L57.4776 52.5658C57.6077 52.4357 57.6727 52.273 57.6727 52.1104C57.6727 51.9478 57.6077 51.7851 57.4776 51.655L55.2982 49.4431C53.7693 47.9142 53.379 45.5722 54.3548 43.588C54.8102 42.6446 55.2331 41.6688 55.5584 40.6604C56.274 38.5461 58.2257 37.1474 60.4376 37.1474H63.5278C63.8857 37.1474 64.1459 36.8546 64.1459 36.5293V29.4707C64.1459 29.1129 63.8531 28.8526 63.5278 28.8526H60.3726C58.1607 28.8526 56.209 27.4539 55.4933 25.3396C55.1681 24.3637 54.7452 23.3879 54.2898 22.4771C53.3139 20.5254 53.6718 18.1508 55.2331 16.622L57.5101 14.345C57.6402 14.2149 57.7053 14.0522 57.7053 13.8896C57.7053 13.727 57.6402 13.5643 57.5101 13.4342L52.5333 8.45737C52.273 8.19714 51.8827 8.19714 51.655 8.45737L49.3455 10.7669C47.8167 12.2957 45.4746 12.6861 43.4904 11.7102C42.5471 11.2548 41.6037 10.8645 40.6279 10.5067C38.5461 9.79103 37.1474 7.83933 37.1474 5.65993V2.47215C37.1474 2.11434 36.8546 1.85412 36.5293 1.85412H29.4707C29.1129 1.85412 28.8526 2.14687 28.8526 2.47215V5.69246C28.8526 7.87186 27.4539 9.82356 25.3721 10.5392C24.3963 10.8645 23.4204 11.2548 22.5096 11.7427C20.5579 12.7186 18.1833 12.3282 16.6545 10.7994L14.345 8.4899C14.1173 8.2622 13.6944 8.2622 13.4667 8.4899L8.4899 13.4667C8.35978 13.5643 8.29473 13.727 8.29473 13.8896C8.29473 14.0522 8.35978 14.2149 8.4899 14.345L10.7669 16.622C12.2957 18.1508 12.6861 20.5254 11.7102 22.4771C11.2223 23.4204 10.8319 24.3637 10.5067 25.3396C9.7585 27.4539 7.8068 28.8526 5.6274 28.8526H2.47215C2.11434 28.8526 1.85412 29.1454 1.85412 29.4707V36.4968C1.85412 36.8546 2.14687 37.1148 2.47215 37.1148H5.56235C7.77427 37.1148 9.72597 38.5461 10.4416 40.6279C10.7669 41.6363 11.1897 42.6121 11.6451 43.5554C12.621 45.5071 12.2307 47.8492 10.7018 49.4105L8.4899 51.6225C8.35978 51.7526 8.29473 51.9152 8.29473 52.0779C8.29473 52.2405 8.35978 52.4032 8.4899 52.5333L13.4667 57.5101C13.6944 57.7378 14.1173 57.7378 14.345 57.5101L16.5244 55.3307C17.5002 54.3549 18.8014 53.8669 20.1025 53.8669Z" fill="#272525"/>
<path d="M33.0163 51.4273C22.8674 51.4273 14.6052 43.1651 14.6052 33.0163C14.6052 22.8674 22.8674 14.6052 33.0163 14.6052C43.1651 14.6052 51.4273 22.8674 51.4273 33.0163C51.4273 43.1651 43.1651 51.4273 33.0163 51.4273ZM33.0163 16.4268C23.8758 16.4268 16.4268 23.8758 16.4268 33.0163C16.4268 42.1567 23.8758 49.6057 33.0163 49.6057C42.1567 49.6057 49.6057 42.1567 49.6057 33.0163C49.5732 23.8758 42.1567 16.4268 33.0163 16.4268Z" fill="#272525"/>
</g>
<defs>
<clipPath id="clip0_330_1103">
<rect width="66" height="66" fill="white"/>
</clipPath>
</defs>
</svg>
