<svg width="48" height="58" viewBox="0 0 48 58" fill="none" xmlns="http://www.w3.org/2000/svg">
<g clip-path="url(#clip0_330_1092)">
<path d="M47.1704 21.1732C46.6963 21.1732 46.3407 21.5529 46.3407 21.9909V41.5579L24.0296 56.1601L1.71852 41.5579V6.07452L3.08148 5.54884C16.5926 0.350452 31.4963 0.350452 45.037 5.54884L46.9333 6.27895C47.3778 6.45418 47.8518 6.22054 48.0296 5.81168C48.2074 5.37361 48 4.90634 47.5556 4.73112L45.6593 4.00101C31.7333 -1.37261 16.4148 -1.37261 2.48889 4.00101L0.533333 4.76032C0.207407 4.87714 0 5.16918 0 5.51964V41.996C0 42.2588 0.148148 42.5217 0.385185 42.6969L23.5556 57.854C23.7037 57.9416 23.8519 58 24.0296 58C24.1778 58 24.3556 57.9416 24.5037 57.854L47.6741 42.6969C47.9111 42.5509 48.0593 42.288 48.0593 41.996V21.9909C48 21.5237 47.6148 21.1732 47.1704 21.1732Z" fill="#272525"/>
<path d="M24.9778 33.9356V10.4844C24.9778 10.0171 24.5926 9.66667 24.1482 9.66667C23.7037 9.66667 23.3185 10.0171 23.3185 10.4844V33.9356C23.3185 34.4028 23.7037 34.7533 24.1482 34.7533C24.5926 34.7533 24.9778 34.3736 24.9778 33.9356Z" fill="#272525"/>
<path d="M20.8 41.1198C20.8 42.9597 22.3111 44.4199 24.1481 44.4199C26.0148 44.4199 27.4963 42.9305 27.4963 41.1198C27.4963 39.28 25.9852 37.8197 24.1481 37.8197C22.2815 37.8197 20.8 39.28 20.8 41.1198ZM24.1481 39.4552C25.0667 39.4552 25.837 40.1853 25.837 41.1198C25.837 42.0252 25.0963 42.7845 24.1481 42.7845C23.2296 42.7845 22.4592 42.0544 22.4592 41.1198C22.4592 40.2145 23.2296 39.4552 24.1481 39.4552Z" fill="#272525"/>
</g>
<defs>
<clipPath id="clip0_330_1092">
<rect width="48" height="58" fill="white"/>
</clipPath>
</defs>
</svg>
