<svg width="36" height="36" viewBox="0 0 36 36" fill="none" xmlns="http://www.w3.org/2000/svg">
<path d="M26.0264 9H9.97362C8.33333 9 7 10.2909 7 11.879V21.8396C7 23.4277 8.33333 24.7186 9.97362 24.7186H20.4149L25.7962 28.2152C25.8921 28.2779 26.0048 28.3104 26.1151 28.3104C26.2086 28.3104 26.2998 28.2895 26.3861 28.2454C26.5731 28.1479 26.6906 27.9598 26.6906 27.7555V24.44C27.7362 24.0104 29 23.0817 29 21.8372V11.879C29 10.2909 27.6643 9 26.0264 9ZM27.8513 21.8372C27.8513 22.4897 26.8465 23.2489 25.9448 23.5229C25.705 23.5948 25.542 23.8108 25.542 24.0522V26.7084L20.9089 23.6993C20.813 23.6366 20.7026 23.6041 20.5899 23.6041H9.97362C8.96643 23.6041 8.14868 22.8124 8.14868 21.8372V11.879C8.14868 10.9039 8.96882 10.1121 9.97362 10.1121H26.0264C27.0336 10.1121 27.8513 10.9039 27.8513 11.879V21.8372Z" fill="#E8DC59"/>
<path d="M24.7506 12.7032H11.2134C10.6187 12.7032 10.1343 13.1723 10.1343 13.7481C10.1343 14.3239 10.6187 14.7929 11.2134 14.7929H24.753C25.3477 14.7929 25.8321 14.3239 25.8321 13.7481C25.8297 13.1723 25.3453 12.7032 24.7506 12.7032ZM24.7506 14.1265H11.2134C10.9976 14.1265 10.8225 13.957 10.8225 13.7481C10.8225 13.5391 10.9976 13.3696 11.2134 13.3696H24.753C24.9688 13.3696 25.1439 13.5391 25.1439 13.7481C25.1415 13.957 24.9664 14.1265 24.7506 14.1265Z" fill="#E8DC59"/>
<path d="M24.7506 15.7681H11.2134C10.6187 15.7681 10.1343 16.2371 10.1343 16.8129C10.1343 17.3887 10.6187 17.8577 11.2134 17.8577H24.753C25.3477 17.8577 25.8321 17.3887 25.8321 16.8129C25.8297 16.2371 25.3453 15.7681 24.7506 15.7681ZM24.7506 17.1913H11.2134C10.9976 17.1913 10.8225 17.0218 10.8225 16.8129C10.8225 16.6039 10.9976 16.4344 11.2134 16.4344H24.753C24.9688 16.4344 25.1439 16.6039 25.1439 16.8129C25.1415 17.0218 24.9664 17.1913 24.7506 17.1913Z" fill="#E8DC59"/>
<path d="M24.7506 18.726H11.2134C10.6187 18.726 10.1343 19.195 10.1343 19.7708C10.1343 20.3466 10.6187 20.8156 11.2134 20.8156H24.753C25.3477 20.8156 25.8321 20.3466 25.8321 19.7708C25.8297 19.195 25.3453 18.726 24.7506 18.726ZM24.7506 20.1493H11.2134C10.9976 20.1493 10.8225 19.9798 10.8225 19.7708C10.8225 19.5619 10.9976 19.3924 11.2134 19.3924H24.753C24.9688 19.3924 25.1439 19.5619 25.1439 19.7708C25.1415 19.9798 24.9664 20.1493 24.7506 20.1493Z" fill="#E8DC59"/>
<circle cx="18" cy="18" r="17" stroke="#E8DC59" stroke-width="2"/>
</svg>
