<svg width="36" height="36" viewBox="0 0 36 36" fill="none" xmlns="http://www.w3.org/2000/svg">
<g clip-path="url(#clip0_404_209)">
<path d="M10.43 17.22L13.87 20.66L25.9 8.62998C26.25 8.27998 26.84 8.52998 26.84 9.01998V15.77C26.84 15.92 26.78 16.06 26.68 16.16L14.12 28.71C13.9 28.93 13.55 28.92 13.33 28.7L6.13997 21.26C5.92997 21.04 5.93997 20.69 6.15997 20.48L9.65997 17.21C9.88997 17.01 10.22 17.01 10.43 17.22Z" fill="#E8DC59"/>
<path d="M26.28 8.46997C26.14 8.46997 26.01 8.51997 25.89 8.62997L13.87 20.66L10.43 17.22C10.32 17.11 10.18 17.06 10.04 17.06C9.89997 17.06 9.76997 17.11 9.65997 17.21L6.15997 20.48C5.93997 20.69 5.92997 21.04 6.13997 21.26L13.33 28.7C13.44 28.81 13.58 28.87 13.73 28.87C13.87 28.87 14.01 28.82 14.12 28.71L26.67 16.16C26.77 16.06 26.83 15.92 26.83 15.77V9.01997C26.84 8.68997 26.56 8.46997 26.28 8.46997Z" fill="#E8DC59"/>
</g>
<circle cx="18" cy="18" r="17" stroke="#E8DC59" stroke-width="2"/>
<defs>
<clipPath id="clip0_404_209">
<rect width="20.84" height="21.88" fill="white" transform="translate(6 7)"/>
</clipPath>
</defs>
</svg>
