<svg width="36" height="36" viewBox="0 0 36 36" fill="none" xmlns="http://www.w3.org/2000/svg">
<circle cx="18" cy="18" r="17" stroke="#E8DC59" stroke-width="2"/>
<g clip-path="url(#clip0_404_207)">
<path d="M30.8311 24.8745C31.1438 24.9356 31.4444 24.7277 31.5045 24.4096L31.9904 21.8236C32.0192 21.6719 31.988 21.5129 31.9014 21.3857C31.8148 21.2585 31.6825 21.1679 31.5334 21.141L30.5521 20.9502C30.5064 20.4046 30.3958 19.8664 30.225 19.3428L31.0524 18.7703C31.3145 18.5893 31.3843 18.2247 31.2039 17.9581L29.7488 15.7806C29.6622 15.651 29.5299 15.5629 29.3808 15.5335C29.2317 15.5042 29.0754 15.536 28.9503 15.6241L28.1229 16.1966C27.7092 15.8418 27.2571 15.5409 26.7761 15.2938L26.9637 14.2956C27.0238 13.9775 26.8193 13.6717 26.5067 13.6106L23.9645 13.1164C23.8153 13.087 23.659 13.1188 23.5339 13.2069C23.4065 13.2949 23.3199 13.4295 23.291 13.5812L23.1034 14.5794C22.5671 14.6259 22.0379 14.7384 21.5232 14.9146L20.9604 14.073C20.8739 13.9433 20.7416 13.8552 20.5925 13.8258C20.4433 13.7965 20.287 13.8283 20.1619 13.9164L18.0214 15.3965C17.8963 15.4846 17.8073 15.6192 17.7785 15.7709C17.7496 15.9225 17.7809 16.0816 17.8674 16.2088L18.4303 17.0504C18.0815 17.4712 17.7857 17.9312 17.5428 18.4205L16.5615 18.2296C16.4123 18.2003 16.256 18.2321 16.1309 18.3202C16.0059 18.4082 15.9169 18.5428 15.8904 18.6945L15.4046 21.2805C15.3445 21.5985 15.5489 21.9044 15.8616 21.9655L16.8429 22.1563C16.8886 22.7019 16.9992 23.2402 17.17 23.7637L16.3426 24.3362C16.2151 24.4243 16.1285 24.5589 16.0997 24.7105C16.0708 24.8622 16.1021 25.0213 16.1887 25.1485L17.6438 27.3259C17.7304 27.4556 17.8626 27.5436 18.0118 27.573C18.1609 27.6024 18.3172 27.5681 18.4423 27.4825L19.2696 26.91C19.6833 27.2647 20.1355 27.5657 20.6165 27.8128L20.4289 28.811C20.3688 29.129 20.5732 29.4348 20.8859 29.496L23.4281 29.9902C23.4642 29.9975 23.5003 30 23.5363 30C23.8081 30 24.0486 29.8043 24.1015 29.5229L24.2891 28.5247C24.8255 28.4782 25.3546 28.3657 25.8693 28.192L26.4321 29.0336C26.5187 29.1633 26.651 29.2513 26.8001 29.2807C26.9492 29.3101 27.1056 29.2758 27.2306 29.1902L29.3712 27.71C29.6334 27.529 29.7031 27.1644 29.5227 26.8953L28.9599 26.0537C29.3087 25.6329 29.6045 25.1729 29.8474 24.6836L30.8311 24.8745ZM28.984 23.798C28.7098 24.4659 28.3177 25.0726 27.8199 25.5962C27.6299 25.7944 27.6034 26.1026 27.7573 26.3326L28.2504 27.0715L27.0623 27.8935L26.5692 27.1571C26.4153 26.9271 26.1267 26.839 25.8741 26.9442C25.2103 27.2231 24.5128 27.3699 23.8009 27.3822C23.5291 27.3871 23.2958 27.5852 23.2453 27.8592L23.0818 28.7327L21.6676 28.4562L21.8311 27.5803C21.8816 27.3088 21.7373 27.0372 21.4872 26.9296C20.8306 26.6507 20.2341 26.2543 19.7194 25.7454C19.5246 25.5522 19.2215 25.5277 18.9955 25.6818L18.2715 26.1834L17.4634 24.9748L18.1873 24.4732C18.4134 24.3166 18.5 24.0231 18.3966 23.7662C18.1224 23.0909 17.9781 22.3814 17.9661 21.6572C17.9612 21.3808 17.7664 21.1435 17.4971 21.0921L16.6384 20.9257L16.9078 19.4896L17.7664 19.656C18.0334 19.7074 18.3004 19.5606 18.4062 19.3061C18.6804 18.6382 19.0724 18.0315 19.5703 17.5079C19.7603 17.3073 19.7843 17.0015 19.6328 16.7715L19.1398 16.0351L20.3279 15.213L20.821 15.9495C20.9749 16.1794 21.2635 16.2675 21.516 16.1623C22.1798 15.8834 22.8773 15.7366 23.5893 15.7244C23.861 15.7195 24.0943 15.5213 24.1448 15.2497L24.3084 14.3763L25.7202 14.6503L25.5567 15.5262C25.5061 15.7978 25.648 16.0693 25.9006 16.177C26.5572 16.4559 27.1537 16.8522 27.6684 17.3611C27.8656 17.5544 28.1662 17.5789 28.3923 17.4247L29.1187 16.9232L29.9268 18.1318L29.2028 18.6333C28.9768 18.7899 28.8902 19.0835 28.9936 19.3404C29.2678 20.0156 29.4121 20.7251 29.4241 21.4493C29.4289 21.7258 29.6237 21.9631 29.8907 22.0144L30.7493 22.1808L30.48 23.6169L29.6213 23.4506C29.3544 23.3943 29.0874 23.5411 28.984 23.798Z" fill="#E8DC59"/>
<path d="M24.4696 17.4198C23.3849 17.2094 22.2833 17.4418 21.3694 18.073C20.4554 18.7043 19.8373 19.6609 19.6305 20.7643C19.4236 21.8676 19.6521 22.9882 20.2726 23.9179C20.8931 24.8475 21.8336 25.4763 22.9183 25.6867C23.178 25.7381 23.4378 25.7626 23.6951 25.7626C25.6409 25.7626 27.3798 24.3558 27.7574 22.3423C28.1855 20.0621 26.7112 17.8529 24.4696 17.4198ZM26.627 22.1221C26.4779 22.9197 26.0329 23.6096 25.3715 24.0646C24.7125 24.5197 23.9164 24.6885 23.1347 24.5368C22.3507 24.3851 21.6724 23.9325 21.2251 23.2597C20.7777 22.5894 20.6117 21.7796 20.7609 20.9844C20.91 20.1869 21.3549 19.4969 22.0163 19.0419C22.5166 18.6945 23.0962 18.5159 23.6879 18.5159C23.8755 18.5159 24.0655 18.533 24.2531 18.5697C25.8718 18.8829 26.9372 20.4756 26.627 22.1221Z" fill="#E8DC59"/>
<path d="M5.28142 15.2179C5.31509 15.4577 5.53396 15.6265 5.77206 15.5898L6.51525 15.4822C6.6788 15.8589 6.88564 16.2137 7.13337 16.5415L6.68361 17.1556C6.61386 17.2486 6.585 17.366 6.60183 17.481C6.61867 17.596 6.6788 17.7012 6.77019 17.7697L8.32872 18.9563C8.52113 19.103 8.7905 19.0615 8.93481 18.8682L9.38457 18.2565C9.76458 18.4058 10.1566 18.5085 10.5583 18.5624L10.6641 19.3183C10.6809 19.4333 10.7411 19.5385 10.8325 19.607C10.907 19.6658 10.9984 19.6951 11.0922 19.6951C11.1139 19.6951 11.1331 19.6927 11.1547 19.6902L13.0813 19.4089C13.317 19.3746 13.4829 19.152 13.4468 18.9098L13.341 18.1538C13.7114 17.9874 14.0601 17.777 14.3824 17.525L14.9837 17.985C15.1761 18.1318 15.4455 18.0902 15.5898 17.8969L16.7563 16.314C16.9006 16.1183 16.8597 15.8442 16.6697 15.6975L16.0684 15.2399C16.2151 14.8534 16.3162 14.4546 16.3691 14.046L17.1123 13.9384C17.2253 13.9213 17.3287 13.8601 17.3961 13.7671C17.4658 13.6742 17.4947 13.5567 17.4778 13.4417L17.2012 11.4821C17.1676 11.2423 16.9487 11.0759 16.7106 11.1077L15.9674 11.2154C15.8039 10.8386 15.597 10.4839 15.3493 10.156L15.8015 9.54438C15.8712 9.45142 15.9001 9.33398 15.8832 9.21899C15.8664 9.10401 15.8063 8.9988 15.7149 8.9303L14.1588 7.74372C14.0674 7.67277 13.9519 7.64342 13.8389 7.66054C13.7258 7.67767 13.6224 7.73883 13.5551 7.8318L13.1053 8.44344C12.7253 8.2942 12.3333 8.19144 11.9316 8.13762L11.8258 7.38164C11.7921 7.14187 11.5732 6.97551 11.3351 7.00731L9.40862 7.28867C9.29558 7.30579 9.19216 7.36696 9.12482 7.45992C9.05507 7.55289 9.02621 7.67033 9.04304 7.78532L9.14887 8.5413C8.77848 8.70766 8.42973 8.91807 8.10745 9.17006L7.50616 8.71011C7.41477 8.63916 7.29932 8.6098 7.18628 8.62693C7.07324 8.64405 6.96982 8.70522 6.90248 8.79819L5.73599 10.3836C5.66624 10.4765 5.63738 10.594 5.65421 10.7089C5.67105 10.8239 5.73118 10.9291 5.82257 10.9976L6.42385 11.4551C6.27714 11.8417 6.17613 12.2405 6.12321 12.6491L5.38003 12.7567C5.26699 12.7738 5.16357 12.835 5.09622 12.928C5.02647 13.0209 4.99761 13.1384 5.01445 13.2534L5.28142 15.2179ZM6.57297 13.476C6.775 13.4466 6.93134 13.2754 6.94336 13.0674C6.97703 12.5243 7.10932 11.9958 7.3378 11.4992C7.42439 11.3108 7.36907 11.0857 7.20552 10.9609L6.6788 10.5597L7.32578 9.67894L7.8525 10.0802C8.01605 10.205 8.24454 10.1952 8.39847 10.0582C8.80253 9.69607 9.26431 9.41716 9.76699 9.23123C9.9594 9.16028 10.0772 8.96211 10.0484 8.75415L9.95459 8.09358L11.0249 7.937L11.1187 8.60002C11.1475 8.80553 11.3159 8.96455 11.5203 8.97678C12.0543 9.01104 12.5738 9.1456 13.062 9.37802C13.2472 9.46609 13.4685 9.40982 13.5911 9.24346L13.9856 8.70766L14.8514 9.36579L14.457 9.90158C14.3343 10.0679 14.344 10.3004 14.4786 10.4569C14.8346 10.868 15.1088 11.3377 15.2916 11.849C15.3613 12.0448 15.5561 12.1646 15.7606 12.1353L16.4124 12.0399L16.5663 13.1286L15.9145 13.224C15.7125 13.2534 15.5561 13.4246 15.5441 13.6326C15.5104 14.1757 15.3782 14.7042 15.1497 15.2008C15.0631 15.3892 15.1184 15.6143 15.282 15.739L15.8087 16.1403L15.1617 17.021L14.635 16.6198C14.4714 16.495 14.2429 16.5048 14.089 16.6418C13.6849 17.0039 13.2232 17.2828 12.7205 17.4688C12.5281 17.5397 12.4102 17.7379 12.4391 17.9458L12.5329 18.6088L11.4626 18.7654L11.3688 18.1024C11.3399 17.8969 11.1716 17.7379 10.9671 17.7256C10.4332 17.6914 9.9137 17.5568 9.42546 17.3244C9.36773 17.2975 9.3052 17.2828 9.24267 17.2828C9.11039 17.2828 8.98051 17.344 8.89633 17.459L8.50189 17.9948L7.63604 17.3366L8.03048 16.8008C8.15314 16.6345 8.14352 16.4021 8.00884 16.2455C7.65288 15.8345 7.37869 15.3647 7.1959 14.8534C7.12615 14.6577 6.92893 14.5378 6.7269 14.5671L6.07511 14.6577L5.92118 13.569L6.57297 13.476Z" fill="#E8DC59"/>
<path d="M11.2389 16.5122C11.3856 16.5122 11.5347 16.5024 11.6839 16.4804C13.3819 16.2333 14.5628 14.6259 14.3199 12.9011C14.077 11.1738 12.4968 9.97255 10.8012 10.2197C9.10316 10.4668 7.92224 12.0741 8.16515 13.799C8.38643 15.3721 9.71887 16.5122 11.2389 16.5122ZM10.9214 11.0882C11.0297 11.0735 11.1355 11.0637 11.2413 11.0637C12.3381 11.0637 13.3001 11.8858 13.4613 13.0234C13.6368 14.2687 12.783 15.4284 11.5588 15.607C10.3322 15.7856 9.19455 14.917 9.01898 13.6717C8.8434 12.4264 9.69722 11.2692 10.9214 11.0882Z" fill="#E8DC59"/>
</g>
<defs>
<clipPath id="clip0_404_207">
<rect width="27" height="23" fill="white" transform="translate(5 7)"/>
</clipPath>
</defs>
</svg>
