<svg width="12" height="16" viewBox="0 0 12 16" fill="none" xmlns="http://www.w3.org/2000/svg">
<g clip-path="url(#clip0_330_949)">
<path d="M8.81495 10.7305C8.93832 10.8409 9.1514 10.8409 9.27477 10.7205C9.99252 10.0178 12 7.86978 12 5.61131C12 4.29638 11.5738 -0.00976562 6.04486 -0.00976562C1.91776 0.000272016 0 1.71671 0 5.40052C0 7.97016 2.24299 10.0279 2.98318 10.6301C3.05047 10.6904 3.09533 10.7707 3.09533 10.861V12.999C3.09533 13.1596 3.24112 13.3001 3.43178 13.3001H8.65794V15.4382H3.65607C3.47664 15.4382 3.34206 15.5687 3.34206 15.7192C3.34206 15.8798 3.48785 16.0003 3.65607 16.0003H8.96075C9.14019 16.0003 9.2972 15.8698 9.2972 15.6991V13.0291C9.2972 12.8685 9.1514 12.728 8.96075 12.728H6.48224V8.19099C6.56075 8.19099 9.06168 5.95259 9.06168 5.95259C9.18505 5.84218 9.18505 5.6615 9.06168 5.55109C8.93832 5.44067 8.73645 5.44067 8.61308 5.55109L6.20187 7.70918L3.0729 5.03917C2.94953 4.92875 2.74766 4.93879 2.6243 5.03917C2.50093 5.14958 2.50093 5.3403 2.6243 5.44067L5.68598 8.07054C5.76449 8.13076 5.79813 8.20103 5.79813 8.28133V12.728H3.73458V10.4595L3.62243 10.3792C3.58879 10.3591 0.639252 8.15084 0.639252 5.40052C0.639252 2.05799 2.31028 0.56238 6.04486 0.56238C10.8449 0.56238 11.372 4.09563 11.372 5.61131C11.372 7.67907 9.48785 9.6866 8.81495 10.339C8.69159 10.4495 8.69159 10.6301 8.81495 10.7305Z" fill="#D5D5D5"/>
</g>
<defs>
<clipPath id="clip0_330_949">
<rect width="12" height="16" fill="white"/>
</clipPath>
</defs>
</svg>
